{"accessors" : [{"bufferView" : 0, "byteOffset" : 0, "componentType" : 5123, "count" : 201, "type" : "SCALAR", "max" : [200], "min" : [0]}, {"bufferView" : 1, "byteOffset" : 0, "componentType" : 5126, "count" : 201, "type" : "VEC3", "max" : [1.2611033369961226E+38, 3.5306621137868813E+30, 1.231546227535276E+35], "min" : [-1.1744940066674004E+29, -1.1744940066674004E+29, -1.1744940066674004E+29], "name" : "POSITION"}, {"bufferView" : 1, "byteOffset" : 12, "componentType" : 5126, "count" : 201, "type" : "VEC3", "max" : [1.0000044107437134, 1.0000042915344238, 0.9956812262535095], "min" : [-0.3143571615219116, -0.4185566008090973, -0.4300987422466278], "name" : "NORMAL"}], "asset" : {"generator" : "Aspose.3D 22.1", "version" : "2.0"}, "buffers" : [{"uri" : "data:application/octet-stream;base64,", "byteLength" : 5236}], "bufferViews" : [{"buffer" : 0, "byteOffset" : 0, "byteLength" : 404, "target" : 34963}, {"buffer" : 0, "byteOffset" : 408, "byteLength" : 4824, "byteStride" : 24, "target" : 34962}], "meshes" : [{"primitives" : [{"attributes" : {"POSITION" : 1, "NORMAL" : 2}, "indices" : 0, "mode" : 4}], "name" : ""}], "nodes" : [{"mesh" : 0, "name" : ""}], "scene" : 0, "scenes" : [{"nodes" : [0]}]}